<?xml version="1.0" encoding="utf-8"?>
<!-- Generator: Adobe Illustrator 25.1.0, SVG Export Plug-In . SVG Version: 6.00 Build 0)  -->
<svg version="1.1" id="Layer_1" xmlns="http://www.w3.org/2000/svg" xmlns:xlink="http://www.w3.org/1999/xlink" x="0px" y="0px"
	 viewBox="0 0 512 512" style="enable-background:new 0 0 512 512;" xml:space="preserve">
<style type="text/css">
	.st0{fill:none;stroke:#DB0361;stroke-width:22;stroke-linecap:round;stroke-linejoin:round;stroke-miterlimit:10;}
	.st1{fill:#DB0361;}
</style>
<path class="st0" d="M394.4,74.8c-34.4-21.9-75.2-34.5-119-34.5C152.5,40.3,53,139.8,53,262.6S152.5,485,275.3,485
	c76.3,0,143.7-38.5,183.7-97.1"/>
<rect x="177.4" y="207.8" class="st0" width="181.9" height="135.7"/>
<path class="st0" d="M211.9,207.4c4.6-29.3,28.1-51.6,56.5-51.6c28.4,0,51.9,22.3,56.5,51.6"/>
<path class="st1" d="M273.3,305.5h-9.8c-6.6,0-12-5.4-12-12v-18.9c0-6.6,5.4-12,12-12h9.8c6.6,0,12,5.4,12,12v18.9
	C285.3,300.1,279.9,305.5,273.3,305.5z"/>
<path class="st1" d="M393.6,17.8c-5.5,0.9-9.2,6.1-8.3,11.6l8,48.5l-51.1,0.2c-5.6,0-10.1,4.5-10.1,10.1s4.5,10.1,10.1,10.1
	c0,0,0.1,0,0.1,0l62.9-0.2c5.6,0,10.1-4.6,10.1-10.1c0-0.5,0-1.1-0.1-1.6l-9.9-60.2c-0.1-0.4-0.1-0.7-0.2-1.1
	C403.6,20.1,398.7,17,393.6,17.8z"/>
</svg>
