<?xml version="1.0"?>
<svg xmlns="http://www.w3.org/2000/svg" xmlns:xlink="http://www.w3.org/1999/xlink" xmlns:svgjs="http://svgjs.com/svgjs" version="1.1" width="512" height="512" x="0" y="0" viewBox="0 0 24 24" style="enable-background:new 0 0 512 512" xml:space="preserve" class=""><g><path xmlns="http://www.w3.org/2000/svg" d="m23 8c-.552 0-1-.447-1-1v-4c0-.552-.449-1-1-1h-4c-.552 0-1-.447-1-1s.448-1 1-1h4c1.654 0 3 1.346 3 3v4c0 .553-.448 1-1 1z" fill="#898d9b" data-original="#000000" style="" class=""/><path xmlns="http://www.w3.org/2000/svg" d="m21 24h-4c-.552 0-1-.447-1-1s.448-1 1-1h4c.551 0 1-.448 1-1v-4c0-.553.448-1 1-1s1 .447 1 1v4c0 1.654-1.346 3-3 3z" fill="#898d9b" data-original="#000000" style="" class=""/><path xmlns="http://www.w3.org/2000/svg" d="m7 24h-4c-1.654 0-3-1.346-3-3v-4c0-.553.448-1 1-1s1 .447 1 1v4c0 .552.449 1 1 1h4c.552 0 1 .447 1 1s-.448 1-1 1z" fill="#898d9b" data-original="#000000" style="" class=""/><path xmlns="http://www.w3.org/2000/svg" d="m1 8c-.552 0-1-.447-1-1v-4c0-1.654 1.346-3 3-3h4c.552 0 1 .447 1 1s-.448 1-1 1h-4c-.551 0-1 .448-1 1v4c0 .553-.448 1-1 1z" fill="#898d9b" data-original="#000000" style="" class=""/><path xmlns="http://www.w3.org/2000/svg" d="m18 11c-.552 0-1-.447-1-1v-3h-10v3c0 .553-.448 1-1 1s-1-.447-1-1v-3c0-1.103.897-2 2-2h10c1.103 0 2 .897 2 2v3c0 .553-.448 1-1 1z" fill="#898d9b" data-original="#000000" style="" class=""/><path xmlns="http://www.w3.org/2000/svg" d="m21 14c0 .553-.448 1-1 1h-1v2c0 1.103-.897 2-2 2h-10c-1.103 0-2-.897-2-2v-2h-1c-.552 0-1-.447-1-1s.448-1 1-1h16c.552 0 1 .447 1 1z" fill="#898d9b" data-original="#000000" style="" class=""/></g></svg>
