<?xml version="1.0"?>
<svg xmlns="http://www.w3.org/2000/svg" xmlns:xlink="http://www.w3.org/1999/xlink" xmlns:svgjs="http://svgjs.com/svgjs" version="1.1" width="512" height="512" x="0" y="0" viewBox="0 0 512 512.00093" style="enable-background:new 0 0 512 512" xml:space="preserve" class=""><g><path xmlns="http://www.w3.org/2000/svg" d="m392.910156 127.84375v2.21875c0 70.820312-32.699218 111.710938-60.128906 133.542969-30.289062 24.109375-70.523438 37.933593-110.386719 37.933593h-70.414062c-1.09375 0-3.523438 0-5.253907.191407-.234374.78125-.503906 1.933593-.726562 3.546875-.058594.453125-.132812.902344-.210938 1.351562l-22.507812 124.066406c-4.015625 22.125-23.234375 38.183594-45.703125 38.183594h-4.296875l-1.554688 10.160156c-1.261718 8.273438 1.136719 16.652344 6.585938 22.996094 5.4375 6.335938 13.34375 9.964844 21.683594 9.964844h54.53125c13.835937 0 25.667968-9.890625 28.136718-23.511719l19.777344-109.015625c.039063-.214844.074219-.433594.101563-.652344 1.800781-13.238281 7.191406-13.855468 17.359375-13.855468h61.867187c32.316407 0 64.894531-11.179688 89.386719-30.671875 22-17.507813 48.226562-50.421875 48.226562-107.78125v-32.792969c.003907-26.191406-9.773437-49.015625-26.472656-65.875zm0 0" fill="#898d9b" data-original="#000000" style="" class=""/><path xmlns="http://www.w3.org/2000/svg" d="m92.84375 425.171875 22.507812-124.066406c4.066407-29.914063 25.109376-30.503907 36.628907-30.503907h70.414062c56.886719 0 139.582031-36.359374 139.582031-140.542968v-37.316406c0-57.019532-46.542968-92.742188-103.429687-92.742188h-106.566406c-81.621094 1-87.824219-.558594-103.429688 103.667969l-48.367187 316.367187c-1.441406 9.417969 5.828125 17.90625 15.335937 17.90625h62.058594c7.5 0 13.925781-5.375 15.265625-12.769531zm0 0" fill="#898d9b" data-original="#000000" style="" class=""/></g></svg>
