<svg height="512pt" viewBox="-85 0 512 512.00003" width="512pt" xmlns="http://www.w3.org/2000/svg" xmlns:xlink="http://www.w3.org/1999/xlink"><linearGradient id="a" gradientTransform="matrix(179.199219 0 0 392.53125 68.300781 8.535156)" gradientUnits="userSpaceOnUse" x1="-.255798" x2="1.255879" y1=".154935" y2=".845065"><stop offset="0" stop-color="#dae5f4"/><stop offset=".172" stop-color="#dae5f4"/><stop offset=".2" stop-color="#dae5f4"/><stop offset=".201" stop-color="#ebecf4"/><stop offset=".201" stop-color="#f6f1f4"/><stop offset=".202" stop-color="#fdf4f4"/><stop offset=".205" stop-color="#fff5f4"/><stop offset=".252" stop-color="#fff5f4"/><stop offset=".26" stop-color="#fff5f4"/><stop offset=".26" stop-color="#dae5f4"/><stop offset=".397" stop-color="#dae5f4"/><stop offset=".42" stop-color="#dae5f4"/><stop offset=".421" stop-color="#ebecf4"/><stop offset=".421" stop-color="#f6f1f4"/><stop offset=".422" stop-color="#fdf4f4"/><stop offset=".425" stop-color="#fff5f4"/><stop offset=".489" stop-color="#fff5f4"/><stop offset=".5" stop-color="#fff5f4"/><stop offset=".5" stop-color="#eeeef4"/><stop offset=".5" stop-color="#e3e9f4"/><stop offset=".5" stop-color="#dce6f4"/><stop offset=".501" stop-color="#dae5f4"/><stop offset=".706" stop-color="#dae5f4"/><stop offset=".74" stop-color="#dae5f4"/><stop offset=".741" stop-color="#fff5f4"/><stop offset=".835" stop-color="#fff5f4"/><stop offset=".85" stop-color="#fff5f4"/><stop offset=".851" stop-color="#dae5f4"/></linearGradient><path d="m264.566406 195.941406 43.597656-18.515625c8.503907-3.382812 14.558594-11.050781 15.882813-20.109375 1.320313-9.054687-2.289063-18.132812-9.472656-23.804687-7.183594-5.675781-16.847657-7.085938-25.355469-3.703125l-24.824219 10.496094zm0 0" fill="#e3e7f2"/><path d="m238.710938 401.066406s-8.535157 17.066406-42.242188 36.265625c-5.46875 2.988281-8.894531 8.703125-8.957031 14.933594v34.132813c0 9.425781-7.640625 17.066406-17.066407 17.066406h-102.402343c-9.414063-.027344-17.039063-7.652344-17.066407-17.066406v-25.171876c0-15.617187-11.007812-28.84375-18.773437-41.558593-14.933594-24.148438-21.589844-25.257813-23.636719-52.734375l44.289063-96 6.910156-14.933594zm0 0" fill="#a4c2f7"/><path d="m213.367188 401.066406s-8.535157 17.066406-42.324219 36.265625c-5.425781 3.027344-8.8125 8.726563-8.875 14.933594v34.132813c-.03125 9.414062-7.652344 17.039062-17.066407 17.066406h-77.058593c-9.414063-.027344-17.039063-7.652344-17.066407-17.066406v-25.171876c0-15.617187-11.007812-28.84375-18.773437-41.558593-14.933594-24.148438-21.589844-25.257813-23.636719-52.734375l44.289063-96zm0 0" fill="#e3e7f2"/><path d="m273.101562 34.132812v341.332032c.011719.542968-.015624 1.085937-.085937 1.625-.792969 13.496094-11.996094 24.023437-25.515625 23.976562h-153.601562c-14.136719 0-25.597657-11.460937-25.597657-25.601562v-341.332032c0-14.136718 11.460938-25.597656 25.597657-25.597656h153.601562c14.136719 0 25.601562 11.460938 25.601562 25.597656zm0 0" fill="#a4c2f7"/><path d="m247.5 34.132812v341.332032c.015625.542968-.015625 1.085937-.085938 1.625-.792968 13.496094-11.992187 24.023437-25.515624 23.976562h-128c-10.28125.027344-19.570313-6.132812-23.550782-15.617187-1.378906-3.144531-2.078125-6.546875-2.046875-9.984375v-341.332032c0-14.136718 11.460938-25.597656 25.597657-25.597656h128c14.140624 0 25.601562 11.460938 25.601562 25.597656zm0 0" fill="url(#a)"/><path d="m271.648438 25.769531c-5.886719 5.460938-14.25 13.398438-24.148438 23.980469v-15.617188c0-14.136718-11.460938-25.597656-25.601562-25.601562l25.601562.003906c10.917969-.042968 20.640625 6.894532 24.148438 17.234375zm0 0" fill="#a4c2f7"/><path d="m238.964844 8.535156h-8.53125c-4.714844 0-8.535156 3.820313-8.535156 8.53125v8.535156c0 9.425782-7.640626 17.066407-17.066407 17.066407h-68.265625c-9.425781 0-17.066406-7.640625-17.066406-17.066407v-8.535156c0-4.710937-3.820312-8.53125-8.535156-8.53125h-8.53125" fill="#e3e7f2"/><path d="m8.6875 366.933594c-1.050781-14.113282 1.882812-52.601563 2.25-66.84375.367188-14.242188-1.160156-29.6875-.699219-43.519532.65625-19.746093 11.257813-33.175781 16.5625-51.804687 3.261719-11.867187 5.625-23.960937 7.066407-36.179687.9375-8.503907 8.105468-14.949219 16.65625-14.984376h1.511718s33.21875 0 33.21875 51.199219c1.273438 5.121094-8.53125 68.265625-25.597656 76.800781zm0 0" fill="#e3e7f2"/><path d="m332.832031 247.464844c0 14.140625-11.460937 25.601562-25.597656 25.601562h-25.601563c-14.136718 0-25.597656-11.460937-25.597656-25.601562 0-14.136719 11.460938-25.597656 25.597656-25.597656h25.601563c14.136719 0 25.597656 11.460937 25.597656 25.597656zm0 0" fill="#a4c2f7"/><path d="m324.300781 298.667969c0 14.136719-11.460937 25.597656-25.601562 25.597656h-17.066407c-1.484374-.023437-2.964843-.136719-4.4375-.339844h-.085937c-1.359375-.308593-2.699219-.707031-4.007813-1.195312-11-3.851563-17.988281-14.664063-16.984374-26.273438 1.007812-11.609375 9.753906-21.0625 21.25-22.964843 1.398437-.3125 2.832031-.457032 4.265624-.425782h17.066407c14.140625 0 25.601562 11.460938 25.601562 25.601563zm0 0" fill="#a4c2f7"/><path d="m316.023438 349.867188c0 14.136718-11.460938 25.597656-25.601563 25.597656h-8.789063c-2.851562.007812-5.679687-.484375-8.363281-1.449219-10.316406-3.539063-17.242187-13.242187-17.242187-24.148437s6.925781-20.609376 17.242187-24.148438c2.683594-.964844 5.511719-1.457031 8.363281-1.453125h8.789063c14.140625 0 25.601563 11.460937 25.601563 25.601563zm0 0" fill="#a4c2f7"/><path d="m307.234375 247.464844c0 14.140625-11.460937 25.601562-25.601563 25.601562-14.136718 0-25.597656-11.460937-25.597656-25.601562 0-14.136719 11.460938-25.597656 25.597656-25.597656 14.140626 0 25.601563 11.460937 25.601563 25.597656zm0 0" fill="#e3e7f2"/><path d="m298.699219 298.667969c.019531 12.5625-9.097657 23.273437-21.503907 25.257812h-.085937c-1.359375-.308593-2.699219-.707031-4.007813-1.195312-11-3.851563-17.988281-14.664063-16.984374-26.273438 1.007812-11.609375 9.753906-21.0625 21.25-22.964843 12.324218 2.019531 21.363281 12.683593 21.332031 25.175781zm0 0" fill="#e3e7f2"/><path d="m290.421875 349.867188c-.007813 10.875-6.882813 20.558593-17.152344 24.148437-10.316406-3.539063-17.242187-13.242187-17.242187-24.148437s6.925781-20.609376 17.242187-24.148438c10.269531 3.585938 17.144531 13.273438 17.152344 24.148438zm0 0" fill="#e3e7f2"/><g fill="#fff"><path d="m68.042969 503.464844h25.601562c-9.414062-.027344-17.039062-7.652344-17.066406-17.066406v-25.171876c0-15.617187-11.007813-28.84375-18.773437-41.558593-14.933594-24.148438-21.589844-25.257813-23.636719-52.734375l.109375-.238282c-1.007813-14.285156 1.894531-52.429687 2.261718-66.5625.367188-14.128906-1.160156-29.6875-.699218-43.519531.65625-19.746093 11.253906-33.175781 16.5625-51.804687 3.261718-11.867188 5.621094-23.960938 7.066406-36.179688.484375-4.222656 2.53125-8.113281 5.734375-10.90625-3.996094-2.414062-8.511719-3.828125-13.167969-4.121094h-1.511718c-8.5625.035157-15.734376 6.5-16.65625 15.015626-1.441407 12.222656-3.804688 24.316406-7.066407 36.183593-5.304687 18.628907-15.90625 32.058594-16.5625 51.804688-.460937 13.796875 1.066407 29.320312.699219 43.519531s-3.265625 52.320312-2.261719 66.605469l-.109375.203125c2.046875 27.476562 8.703125 28.585937 23.636719 52.734375 7.765625 12.714843 18.773437 25.941406 18.773437 41.558593v25.171876c.027344 9.414062 7.652344 17.039062 17.066407 17.066406zm0 0"/><path d="m298.699219 223.429688c2.734375-1.007813 5.621093-1.535157 8.535156-1.5625h-8.535156zm0 0"/><path d="m298.699219 324.265625c1.292969-.03125 2.582031-.160156 3.859375-.382813-1.3125-.296874-2.601563-.683593-3.859375-1.152343zm0 0"/><path d="m298.699219 128.042969v8.585937l12.441406-5.265625c-3.796875-2.144531-8.078125-3.289062-12.441406-3.320312zm0 0"/><path d="m302.964844 273.492188c-1.40625-.257813-2.832032-.402344-4.265625-.425782v1.519532c1.386719-.488282 2.816406-.851563 4.265625-1.09375zm0 0"/><path d="m298.699219 273.066406h8.535156c-2.914063-.027344-5.800781-.558594-8.535156-1.5625zm0 0"/><path d="m298.699219 325.75v.042969l.058593-.023438zm0 0"/><path d="m298.699219 373.9375v.042969l.058593-.015625zm0 0"/><path d="m76.125 153.601562h1.511719c5.910156.394532 11.574219 2.539063 16.261719 6.160157v-125.628907c0-14.136718 11.464843-25.597656 25.601562-25.597656h-25.601562c-14.136719 0-25.597657 11.460938-25.597657 25.597656v121.488282c2.398438-1.3125 5.089844-2.007813 7.824219-2.019532zm0 0"/><path d="m76.832031 34.132812v125.78125h-17.066406v-125.78125zm0 0"/></g><path d="m68.300781 110.933594c3.464844.019531 6.601563-2.058594 7.929688-5.261719s.589843-6.890625-1.871094-9.332031l-1.28125-1.023438c-.476563-.324218-.992187-.582031-1.535156-.765625-.484375-.246093-1-.421875-1.535157-.511719-.566406-.097656-1.136718-.152343-1.707031-.171874-2.261719.03125-4.421875.917968-6.058593 2.472656-.773438.816406-1.378907 1.773437-1.792969 2.816406-1.289063 3.183594-.585938 6.824219 1.792969 9.300781.816406.773438 1.769531 1.382813 2.816406 1.792969 1.023437.4375 2.125.667969 3.242187.683594zm0 0" fill="#428dff"/><path d="m247.5 0h-153.601562c-18.851563 0-34.132813 15.28125-34.132813 34.132812v34.132813c0 4.714844 3.820313 8.535156 8.535156 8.535156 4.710938 0 8.53125-3.820312 8.53125-8.535156v-34.132813c0-9.425781 7.640625-17.066406 17.066407-17.066406h17.066406v8.535156c0 14.136719 11.464844 25.597657 25.601562 25.597657h68.265625c14.140625 0 25.601563-11.460938 25.601563-25.597657v-8.535156h17.066406c9.425781 0 17.066406 7.640625 17.066406 17.066406v183.945313c-9.554687 5.4375-15.863281 15.183594-16.914062 26.125-1.050782 10.941406 3.292968 21.710937 11.640625 28.863281-7.472657 6.414063-11.78125 15.769532-11.792969 25.617188-.015625 9.847656 4.261719 19.214844 11.714844 25.652344-8.242188 7.109374-12.554688 17.753906-11.582032 28.59375.976563 10.84375 7.113282 20.550781 16.488282 26.078124-1.632813 7.878907-8.574219 13.527344-16.621094 13.527344h-153.601562c-9.425782 0-17.066407-7.644531-17.066407-17.070312v-101.253906c10.050781-21.839844 15.828125-45.398438 17.015625-69.410157h.050782c0-26.035156-8.046876-40.714843-17.066407-49v-19.265625c0-4.714844-3.820312-8.535156-8.53125-8.535156-4.714843 0-8.535156 3.820312-8.535156 8.535156v9.828125c-2.484375-.71875-5.042969-1.152343-7.628906-1.296875h-1.507813c-12.875.058594-23.671875 9.738282-25.132812 22.527344-1.390625 11.777344-3.671875 23.433594-6.824219 34.867188-1.910156 6.222656-4.242187 12.308593-6.980469 18.210937-5.648437 11.105469-9.019531 23.226563-9.917968 35.652344-.238282 7.339843.058593 15.136719.34375 22.65625.261718 6.996093.542968 14.226562.375 20.890625-.121094 4.496094-.503907 11.433594-.921876 19.257812-.929687 17.066406-2.082031 38.296875-1.324218 48.4375.167968 15.378906 5.550781 30.246094 15.265625 42.171875 2.714843 3.871094 5.890625 8.394531 9.574219 14.386719 1.496093 2.40625 3.089843 4.84375 4.703124 7.3125 6.996094 8.527344 11.46875 18.84375 12.910157 29.78125v25.179688c0 14.140624 11.460937 25.601562 25.601562 25.601562h102.398438c14.140625 0 25.601562-11.460938 25.601562-25.601562v-34.132813c.070313-3.148437 1.816407-6.023437 4.582031-7.535156 16.589844-8.53125 31.164063-20.507813 42.75-35.128907h3.867188c15.597656-.003906 29.203125-10.59375 33.03125-25.710937.375 0 .726562.109375 1.101562.109375h8.789063c13.332031.070312 25.46875-7.667969 31.035156-19.78125 5.5625-12.113281 3.523438-26.359375-5.210937-36.429688 8.617187-5.074218 14.53125-13.71875 16.148437-23.589843 1.613281-9.871094-1.242187-19.949219-7.796875-27.507813 13.246094-7.792968 19.625-23.5 15.5625-38.324218-4.0625-14.820313-17.558594-25.082032-32.925781-25.035157h-25.601563v-15.707031l29.671876-12.265625c17.527343-6.980469 26.085937-26.835937 19.121093-44.371094-6.984375-17.523437-26.835937-26.082031-44.371093-19.132812l-4.4375 1.765625v-89.488282c0-18.84375-15.273438-34.1249995-34.117188-34.132812zm-34.132812 25.601562c0 4.710938-3.820313 8.53125-8.535157 8.53125h-68.265625c-4.710937 0-8.53125-3.820312-8.53125-8.53125v-8.535156h85.332032zm-20.90625 404.289063c-8.105469 4.542969-13.15625 13.085937-13.226563 22.375v34.132813c0 4.714843-3.820313 8.535156-8.535156 8.535156h-102.398438c-4.714843 0-8.535156-3.820313-8.535156-8.535156v-25.179688c-1.230469-14.320312-6.6875-27.949219-15.675781-39.160156-1.527344-2.320313-3.027344-4.609375-4.425782-6.886719-3.910156-6.339844-7.273437-11.09375-10.132812-15.230469-7.925781-9.414062-12.261719-21.332031-12.234375-33.640625-.667969-9.054687.453125-29.679687 1.347656-46.242187.425781-8.019532.851563-15.136719.9375-19.753906.179688-7.203126-.101562-14.703126-.375-21.964844-.289062-7.570313-.5625-14.710938-.332031-21.453125.84375-10.261719 3.722656-20.25 8.464844-29.386719 3.046875-6.609375 5.636718-13.417969 7.75-20.378906 3.386718-12.296875 5.839844-24.835938 7.328125-37.503906.4375-4.21875 3.96875-7.4375 8.210937-7.484376h1.390625c2.558594.078126 24.8125 1.910157 24.8125 42.667969-.050781.410157-.015625.824219.105469 1.21875 1.464844 25.140625-16.710938 65.808594-20.984375 67.941407-3.558594 1.742187-5.4375 5.714843-4.523437 9.570312.914062 3.851562 4.375 6.558594 8.335937 6.515625v85.417969c0 18.851562 15.28125 34.136718 34.132813 34.136718h126.839843c-8.589843 7.855469-18.082031 14.667969-28.277343 20.289063zm83.402343-115.199219c-6.808593-2.367187-11.351562-8.8125-11.296875-16.023437 0-9.425781 7.640625-17.066407 17.066406-17.066407h17.066407c9.425781 0 17.066406 7.640626 17.066406 17.066407s-7.640625 17.066406-17.066406 17.066406h-17.066407c-1.972656.007813-3.929687-.355469-5.769531-1.078125zm14.558594 52.242188h-8.789063c-9.425781 0-17.066406-7.640625-17.066406-17.066406 0-9.425782 7.640625-17.066407 17.066406-17.066407h8.789063c9.425781 0 17.066406 7.640625 17.066406 17.066407 0 9.425781-7.640625 17.066406-17.066406 17.066406zm33.878906-119.46875c0 9.425781-7.640625 17.070312-17.066406 17.070312h-25.601563c-9.425781 0-17.066406-7.644531-17.066406-17.070312 0-9.425782 7.640625-17.066406 17.066406-17.066406h25.601563c9.425781 0 17.066406 7.640624 17.066406 17.066406zm-31.941406-109.71875c5.679687-2.242188 12.121094-1.28125 16.902344 2.519531 4.777343 3.800781 7.167969 9.859375 6.265625 15.898437-.898438 6.039063-4.953125 11.136719-10.632813 13.375l-23.261719 9.660157v-37.195313zm0 0" fill="#428dff"/><path d="m204.832031 375.464844c4.714844 0 8.535157-3.820313 8.535157-8.53125 0-4.714844-3.820313-8.535156-8.535157-8.535156h-68.265625c-4.710937 0-8.53125 3.820312-8.53125 8.535156 0 4.710937 3.820313 8.53125 8.53125 8.53125zm0 0" fill="#428dff"/><path d="m85.367188 460.800781c-4.714844 0-8.535157 3.820313-8.535157 8.53125 0 4.714844 3.820313 8.535157 8.535157 8.535157h8.53125c4.714843 0 8.535156-3.820313 8.535156-8.535157 0-4.710937-3.820313-8.53125-8.535156-8.53125zm0 0" fill="#428dff"/><path d="m128.035156 477.867188h25.597656c4.714844 0 8.535157-3.820313 8.535157-8.535157 0-4.710937-3.820313-8.53125-8.535157-8.53125h-25.597656c-4.714844 0-8.535156 3.820313-8.535156 8.53125 0 4.714844 3.820312 8.535157 8.535156 8.535157zm0 0" fill="#428dff"/><path d="m102.433594 85.332031c4.710937 0 8.53125-3.820312 8.53125-8.53125v-8.535156c0-4.710937-3.820313-8.53125-8.53125-8.53125-4.714844 0-8.535156 3.820313-8.535156 8.53125v8.535156c0 4.710938 3.820312 8.53125 8.535156 8.53125zm0 0" fill="#428dff"/><path d="m93.898438 153.601562c0 4.710938 3.820312 8.53125 8.535156 8.53125 4.710937 0 8.53125-3.820312 8.53125-8.53125v-42.667968c0-4.714844-3.820313-8.535156-8.53125-8.535156-4.714844 0-8.535156 3.820312-8.535156 8.535156zm0 0" fill="#428dff"/></svg>