<?xml version="1.0" encoding="iso-8859-1"?>
<!-- Generator: Adobe Illustrator 19.0.0, SVG Export Plug-In . SVG Version: 6.00 Build 0)  -->
<svg version="1.1" id="Capa_1" xmlns="http://www.w3.org/2000/svg" xmlns:xlink="http://www.w3.org/1999/xlink" x="0px" y="0px"
	 viewBox="0 0 511.998 511.998" style="enable-background:new 0 0 511.998 511.998;" xml:space="preserve">
<g>
	<path style="fill:#5DADE0;" d="M90.174,226.742c0.504-7.066-5.092-13.076-12.176-13.076h-21.5c-7.084,0-12.681,6.01-12.176,13.076
		l3.607,50.552l40.179-21.599L90.174,226.742z"/>
	<path style="fill:#5DADE0;" d="M467.674,226.742c0.504-7.066-5.092-13.076-12.176-13.076h-21.5c-7.084,0-12.681,6.01-12.176,13.076
		l2.066,28.954l40.179,21.599L467.674,226.742z"/>
</g>
<g>
	<path style="fill:#ECEFF0;" d="M88.108,255.696l-40.179,21.599l-20.313,10.919c-9.984,5.367-16.212,15.785-16.212,27.12v32.585
		c0,3.991,3.804,6.884,7.65,5.817l189.166-52.47V191.127L88.108,255.696z"/>
	<path style="fill:#ECEFF0;" d="M492.941,353.736c3.846,1.067,7.65-1.826,7.65-5.817v-32.585c0-11.335-6.228-21.753-16.212-27.12
		l-20.313-10.919l-40.179-21.599l-120.112-64.568v110.138L492.941,353.736z"/>
</g>
<g>
	<path style="fill:#5DADE0;" d="M293.897,456.993L293.897,456.993l-5.453,31.83c-0.129,0.756-0.325,1.485-0.555,2.197l86.694,9.685
		c6.183,0.691,11.593-4.148,11.593-10.37v-11.401c0-7.826-4.33-15.01-11.25-18.665l-74.842-39.529
		c-0.121,0.742-0.23,1.486-0.357,2.227L293.897,456.993z"/>
	<path style="fill:#5DADE0;" d="M217.55,456.993L217.55,456.993l-5.71-35.287c-0.046-0.286-0.085-0.573-0.13-0.859l-74.64,39.423
		c-6.92,3.655-11.25,10.839-11.25,18.665v11.401c0,6.222,5.41,11.061,11.593,10.37l85.869-9.593
		c-0.259-0.785-0.47-1.595-0.605-2.433L217.55,456.993z"/>
</g>
<g>
	<path style="fill:#EC6575;" d="M303.775,301.266V191.127V104.46c0-28.603-7.921-56.515-22.69-79.956l0,0
		c-12.186-19.34-37.988-19.34-50.174,0l0,0c-14.769,23.44-22.69,51.353-22.69,79.956v86.667v110.138v75.404
		c0,14.795,1.172,29.565,3.49,44.176c0.045,0.286,0.084,0.573,0.13,0.859l5.71,35.287h76.347l5.829-34.026
		c0.127-0.741,0.236-1.485,0.357-2.227c2.447-15.003,3.692-30.18,3.692-45.384v-74.088H303.775z"/>
	<path style="fill:#EC6575;" d="M280.812,499.838c-0.787,0.46-1.615,0.853-2.478,1.174
		C279.197,500.691,280.025,500.298,280.812,499.838z"/>
	<path style="fill:#EC6575;" d="M281.96,499.099c2.228-1.573,4.041-3.713,5.22-6.233
		C286.001,495.386,284.188,497.526,281.96,499.099z"/>
	<path style="fill:#EC6575;" d="M287.18,492.866c0.277-0.593,0.506-1.213,0.71-1.846c0.23-0.712,0.425-1.441,0.555-2.197
		C288.2,490.25,287.769,491.606,287.18,492.866z"/>
</g>
<path style="fill:#ECEFF0;" d="M288.444,488.823l5.453-31.83l0,0H217.55l0,0l5.127,31.686c0.136,0.839,0.347,1.648,0.605,2.433
	c0.482,1.462,1.155,2.828,2.008,4.059c2.884,4.162,7.689,6.829,13.037,6.829h34.491c1.931,0,3.791-0.348,5.516-0.989
	c0.863-0.32,1.691-0.714,2.478-1.174c0.393-0.23,0.776-0.477,1.148-0.739c2.228-1.573,4.041-3.713,5.22-6.233
	C287.769,491.606,288.2,490.25,288.444,488.823z"/>
<path d="M1.405,315.334v32.585c0,5.054,2.307,9.706,6.33,12.766c2.838,2.158,6.212,3.281,9.665,3.281
	c1.44,0,2.895-0.195,4.328-0.594l176.493-48.956v62.253c0,12.878,0.876,25.835,2.581,38.628L132.4,451.425
	c-10.227,5.4-16.58,15.941-16.58,27.508v11.4c0,5.808,2.482,11.358,6.81,15.229c4.329,3.872,10.118,5.722,15.894,5.079l79.218-8.85
	c4.743,6.259,12.221,10.207,20.586,10.207h34.491c8.376,0,15.893-3.988,20.641-10.295l80.015,8.939
	c0.755,0.084,1.51,0.126,2.262,0.126c5-0.001,9.869-1.839,13.631-5.205c4.328-3.871,6.81-9.422,6.81-15.229v-11.4
	c0-11.566-6.353-22.107-16.58-27.508l0,0l-68.572-36.218c1.816-13.197,2.75-26.561,2.75-39.854v-60.939l176.494,48.957
	c1.434,0.397,2.887,0.593,4.328,0.593c3.452,0,6.827-1.123,9.665-3.281c4.022-3.06,6.33-7.712,6.33-12.766v-32.585
	c0-15.04-8.229-28.807-21.477-35.928l-14.612-7.855l3.147-44.098c0.437-6.127-1.713-12.219-5.899-16.714
	c-4.186-4.495-10.109-7.073-16.251-7.073h-21.503c-6.142,0-12.066,2.578-16.251,7.073c-4.186,4.495-6.336,10.587-5.899,16.715
	l0.773,10.832l-98.845-53.135v-80.69c0-30.638-8.378-60.13-24.23-85.287C281.981,7.168,269.439,0,255.998,0
	c-13.441,0-25.983,7.168-33.547,19.174c-15.852,25.157-24.23,54.649-24.23,85.287v80.69l-98.845,53.135l0.773-10.833
	c0.437-6.127-1.713-12.219-5.899-16.714c-4.186-4.495-10.109-7.073-16.251-7.073H56.498c-6.142,0-12.066,2.578-16.251,7.073
	c-4.186,4.495-6.336,10.587-5.899,16.715l3.147,44.097l-14.612,7.855C9.634,286.527,1.405,300.294,1.405,315.334z M431.796,226.031
	c-0.057-0.793,0.288-1.342,0.586-1.662c0.299-0.321,0.821-0.703,1.615-0.703h21.5c0.794,0,1.316,0.382,1.615,0.703
	c0.299,0.32,0.643,0.869,0.586,1.661l-2.508,35.141l-21.721-11.677L431.796,226.031z M313.775,207.856l39.047,20.99v40.308
	c0,5.522,4.477,10,10,10s10-4.478,10-10v-29.556l41.483,22.3l20.851,11.208l12.189,6.552l25.192,13.542l7.108,3.821
	c6.752,3.63,10.947,10.647,10.947,18.313v27.373l-176.816-49.045v-85.806H313.775z M272.818,492h-34.491
	c-2.887,0-5.318-2.068-5.779-4.919l-1.123-6.941l-2.127-13.146h52.74l-2.237,13.061l-1.213,7.081
	C278.105,489.954,275.678,492,272.818,492z M370.256,469.112L370.256,469.112c3.652,1.928,5.92,5.692,5.92,9.822v11.4
	c0,0.068,0,0.194-0.145,0.324c-0.146,0.13-0.278,0.113-0.338,0.107l-75.982-8.489l4.043-23.596c0-0.001,0-0.002,0-0.002
	l3.879-22.643L370.256,469.112z M218.221,301.266V191.128v-86.667c0-26.859,7.314-52.664,21.151-74.625
	C243.31,23.585,249.37,20,255.998,20s12.688,3.585,16.626,9.836c13.837,21.961,21.151,47.766,21.151,74.625v86.667v110.138v74.09
	c0,9.951-0.562,19.945-1.657,29.868c-0.594,5.379-1.338,10.738-2.248,16.055l-0.845,4.93l-3.561,20.785h-59.403l-3.342-20.653
	l-1.008-6.232c-0.794-4.909-1.444-9.853-1.968-14.815c-1.005-9.512-1.523-19.091-1.523-28.624L218.221,301.266L218.221,301.266z
	 M207.678,458.586c0,0.002,0,0.003,0.001,0.005l3.847,23.772l-75.222,8.404c-0.063,0.007-0.194,0.021-0.339-0.107
	c-0.145-0.13-0.145-0.256-0.145-0.324v-11.4c0-4.13,2.268-7.895,5.92-9.822l62.315-32.914L207.678,458.586z M54.296,226.031
	c-0.057-0.793,0.288-1.342,0.586-1.662c0.299-0.321,0.821-0.703,1.615-0.703h21.501c0.794,0,1.316,0.382,1.615,0.703
	c0.299,0.32,0.643,0.869,0.586,1.661l-1.674,23.464l-21.721,11.677L54.296,226.031z M32.352,297.021l7.108-3.821l25.192-13.542
	l12.189-6.552l20.851-11.208l41.483-22.3v29.556c0,5.522,4.477,10,10,10s10-4.478,10-10v-40.308l39.047-20.99v85.806L21.405,342.707
	v-27.373C21.405,307.669,25.6,300.651,32.352,297.021z"/>
<path d="M243.287,85.786l12.711-7.704l12.711,7.704c1.62,0.982,3.408,1.45,5.174,1.45c3.381-0.001,6.681-1.716,8.561-4.818
	c2.863-4.724,1.354-10.873-3.369-13.735L261.18,57.837c-3.186-1.932-7.181-1.932-10.366,0l-17.895,10.846
	c-4.723,2.862-6.231,9.012-3.369,13.735C232.415,87.141,238.564,88.65,243.287,85.786z"/>
<path d="M255.724,186.333c-0.008,0-0.016,0-0.023,0c-5.523,0.013-9.99,4.5-9.977,10.023l0.274,119.334
	c0.013,5.515,4.487,9.977,10,9.977c0.008,0,0.016,0,0.023,0c5.523-0.013,9.99-4.5,9.977-10.023l-0.274-119.334
	C265.711,190.795,261.236,186.333,255.724,186.333z"/>
<path d="M265.228,351.84c-0.25-0.6-0.56-1.18-0.92-1.72c-0.36-0.551-0.78-1.061-1.24-1.521c-2.32-2.33-5.77-3.39-9.02-2.74
	c-0.64,0.131-1.27,0.32-1.87,0.57c-0.61,0.25-1.19,0.561-1.73,0.92c-0.55,0.37-1.06,0.79-1.52,1.25s-0.88,0.97-1.24,1.521
	c-0.36,0.54-0.67,1.12-0.92,1.72c-0.25,0.61-0.44,1.24-0.57,1.87c-0.13,0.649-0.2,1.31-0.2,1.96c0,0.649,0.07,1.31,0.2,1.95
	c0.13,0.64,0.32,1.27,0.57,1.87s0.56,1.189,0.92,1.729c0.36,0.55,0.78,1.061,1.24,1.521s0.97,0.88,1.52,1.239
	c0.54,0.36,1.12,0.67,1.73,0.92c0.6,0.25,1.23,0.44,1.87,0.57s1.3,0.2,1.95,0.2c0.65,0,1.31-0.07,1.95-0.2s1.27-0.32,1.87-0.57
	c0.61-0.25,1.19-0.56,1.73-0.92c0.55-0.359,1.06-0.779,1.52-1.239s0.88-0.971,1.24-1.521c0.36-0.54,0.67-1.13,0.92-1.729
	c0.25-0.601,0.45-1.23,0.58-1.87c0.13-0.641,0.19-1.301,0.19-1.95c0-0.65-0.06-1.311-0.19-1.96
	C265.678,353.08,265.478,352.45,265.228,351.84z"/>
<g>
</g>
<g>
</g>
<g>
</g>
<g>
</g>
<g>
</g>
<g>
</g>
<g>
</g>
<g>
</g>
<g>
</g>
<g>
</g>
<g>
</g>
<g>
</g>
<g>
</g>
<g>
</g>
<g>
</g>
</svg>
