<?xml version="1.0"?>
<svg xmlns="http://www.w3.org/2000/svg" xmlns:xlink="http://www.w3.org/1999/xlink" xmlns:svgjs="http://svgjs.com/svgjs" version="1.1" width="512" height="512" x="0" y="0" viewBox="0 0 511.998 511.998" style="enable-background:new 0 0 512 512" xml:space="preserve" class=""><g>
<g xmlns="http://www.w3.org/2000/svg">
	<g>
		<path d="M489.116,279.405l-14.612-7.855l3.147-44.098c0.437-6.127-1.713-12.219-5.899-16.714    c-4.186-4.495-10.109-7.073-16.251-7.073h-21.503c-6.142,0-12.066,2.578-16.251,7.073c-4.186,4.495-6.336,10.587-5.899,16.715    l0.773,10.832l-98.845-53.135v-80.69c0-30.638-8.378-60.13-24.23-85.287C281.981,7.168,269.439,0,255.998,0    c-13.441,0-25.983,7.168-33.547,19.174c-15.852,25.157-24.23,54.649-24.23,85.287v80.69l-98.845,53.135l0.773-10.833    c0.437-6.127-1.713-12.219-5.899-16.714s-10.109-7.073-16.251-7.073H56.498c-6.142,0-12.066,2.578-16.251,7.073    c-4.186,4.495-6.336,10.587-5.899,16.715l3.147,44.097l-14.612,7.855c-13.249,7.121-21.478,20.888-21.478,35.928v32.585    c0,5.054,2.307,9.706,6.33,12.766c2.838,2.158,6.212,3.281,9.665,3.281c1.44,0,2.895-0.195,4.328-0.594l176.493-48.956v62.253    c0,12.878,0.876,25.835,2.581,38.628L132.4,451.425c-10.227,5.4-16.58,15.941-16.58,27.508v11.4c0,5.808,2.482,11.358,6.81,15.229    c4.329,3.872,10.118,5.722,15.894,5.079l79.218-8.85c4.743,6.259,12.221,10.207,20.586,10.207h34.491    c8.376,0,15.893-3.988,20.641-10.295l80.015,8.939c0.755,0.084,1.51,0.126,2.262,0.126c5-0.001,9.869-1.839,13.631-5.205    c4.328-3.871,6.81-9.422,6.81-15.229v-11.4c0-11.566-6.353-22.107-16.58-27.508l-68.572-36.218    c1.816-13.197,2.75-26.561,2.75-39.854v-60.939l176.494,48.957c1.434,0.397,2.887,0.593,4.328,0.593    c3.452,0,6.827-1.123,9.665-3.281c4.022-3.06,6.33-7.712,6.33-12.766v-32.585C510.593,300.293,502.364,286.526,489.116,279.405z     M54.882,224.369c0.299-0.321,0.821-0.703,1.615-0.703h21.501c0.794,0,1.316,0.382,1.615,0.703    c0.299,0.32,0.643,0.869,0.586,1.661l-1.674,23.464l-21.721,11.677l-2.508-35.14C54.239,225.238,54.584,224.689,54.882,224.369z     M198.222,293.662L21.405,342.707v-27.373c0-7.665,4.195-14.683,10.947-18.313l7.108-3.821l25.192-13.542l12.189-6.552    l20.851-11.208l41.483-22.3v29.556c0,5.522,4.477,10,10,10s10-4.478,10-10v-40.308l39.047-20.99V293.662z M136.304,490.767    c-0.063,0.007-0.194,0.021-0.339-0.107c-0.145-0.13-0.145-0.256-0.145-0.324v-11.4c0-4.13,2.268-7.895,5.92-9.822l62.315-32.914    l3.623,22.386c0,0.002,0,0.003,0.001,0.005l3.847,23.772L136.304,490.767z M279.801,480.055l-1.213,7.081    c-0.483,2.818-2.91,4.864-5.77,4.864h-34.491c-2.887,0-5.318-2.068-5.779-4.919l-1.123-6.941l-2.127-13.146h52.74L279.801,480.055    z M293.775,191.128v110.138v74.09c0,9.951-0.562,19.945-1.657,29.868c-0.594,5.379-1.338,10.738-2.248,16.055l-0.845,4.93    l-3.561,20.785h-59.403l-3.342-20.653l-1.008-6.232c-0.794-4.909-1.444-9.853-1.968-14.815    c-1.005-9.512-1.523-19.091-1.523-28.624v-75.404h0.001V191.128v-86.667c0-26.859,7.314-52.664,21.151-74.625    C243.31,23.585,249.37,20,255.998,20c6.628,0,12.688,3.585,16.626,9.836c13.837,21.961,21.151,47.766,21.151,74.625V191.128z     M370.256,469.112c3.652,1.928,5.92,5.692,5.92,9.822v11.4c0,0.068,0,0.194-0.145,0.324c-0.146,0.13-0.278,0.113-0.338,0.107    l-75.982-8.489l4.043-23.596c0-0.001,0-0.002,0-0.002l3.879-22.643L370.256,469.112z M432.382,224.369    c0.299-0.321,0.821-0.703,1.615-0.703h21.5c0.794,0,1.316,0.382,1.615,0.703c0.299,0.32,0.643,0.869,0.586,1.661l-2.508,35.141    l-21.721-11.677l-1.673-23.463C431.739,225.238,432.084,224.689,432.382,224.369z M490.592,342.707l-176.816-49.045v-85.805    l39.046,20.989v40.308c0,5.522,4.477,10,10,10s10-4.478,10-10v-29.556l41.483,22.3l20.851,11.208l12.189,6.552l25.192,13.542    l7.108,3.821c6.752,3.63,10.947,10.647,10.947,18.313V342.707z" fill="#db0361" data-original="#000000" style=""/>
	</g>
</g>
<g xmlns="http://www.w3.org/2000/svg">
	<g>
		<path d="M279.075,68.683L261.18,57.837c-3.186-1.932-7.181-1.932-10.366,0l-17.895,10.846c-4.723,2.862-6.231,9.012-3.369,13.735    c2.865,4.723,9.014,6.232,13.737,3.368l12.711-7.704l12.711,7.704c1.62,0.982,3.408,1.45,5.174,1.45    c3.381-0.001,6.681-1.716,8.561-4.818C285.307,77.694,283.798,71.545,279.075,68.683z" fill="#db0361" data-original="#000000" style=""/>
	</g>
</g>
<g xmlns="http://www.w3.org/2000/svg">
	<g>
		<path d="M265.724,196.31c-0.013-5.515-4.488-9.977-10-9.977c-0.008,0-0.016,0-0.023,0c-5.523,0.013-9.99,4.5-9.977,10.023    l0.274,119.334c0.013,5.515,4.487,9.977,10,9.977c0.008,0,0.016,0,0.023,0c5.523-0.013,9.99-4.5,9.977-10.023L265.724,196.31z" fill="#db0361" data-original="#000000" style=""/>
	</g>
</g>
<g xmlns="http://www.w3.org/2000/svg">
	<g>
		<path d="M265.808,353.71c-0.13-0.63-0.33-1.26-0.58-1.87c-0.25-0.6-0.56-1.18-0.92-1.72c-0.36-0.551-0.78-1.061-1.24-1.521    c-2.32-2.33-5.77-3.39-9.02-2.74c-0.64,0.131-1.27,0.32-1.87,0.57c-0.61,0.25-1.19,0.561-1.73,0.92    c-0.55,0.37-1.06,0.79-1.52,1.25c-0.46,0.46-0.88,0.97-1.24,1.521c-0.36,0.54-0.67,1.12-0.92,1.72c-0.25,0.61-0.44,1.24-0.57,1.87    c-0.13,0.649-0.2,1.31-0.2,1.96c0,0.649,0.07,1.31,0.2,1.95s0.32,1.27,0.57,1.87c0.25,0.6,0.56,1.189,0.92,1.729    c0.36,0.55,0.78,1.061,1.24,1.521c0.46,0.46,0.97,0.88,1.52,1.239c0.54,0.36,1.12,0.67,1.73,0.92c0.6,0.25,1.23,0.44,1.87,0.57    c0.64,0.13,1.3,0.2,1.95,0.2c0.65,0,1.31-0.07,1.95-0.2s1.27-0.32,1.87-0.57c0.61-0.25,1.19-0.56,1.73-0.92    c0.55-0.359,1.06-0.779,1.52-1.239c0.46-0.46,0.88-0.971,1.24-1.521c0.36-0.54,0.67-1.13,0.92-1.729    c0.25-0.601,0.45-1.23,0.58-1.87c0.13-0.641,0.19-1.301,0.19-1.95C265.998,355.02,265.938,354.359,265.808,353.71z" fill="#db0361" data-original="#000000" style=""/>
	</g>
</g>
<g xmlns="http://www.w3.org/2000/svg">
</g>
<g xmlns="http://www.w3.org/2000/svg">
</g>
<g xmlns="http://www.w3.org/2000/svg">
</g>
<g xmlns="http://www.w3.org/2000/svg">
</g>
<g xmlns="http://www.w3.org/2000/svg">
</g>
<g xmlns="http://www.w3.org/2000/svg">
</g>
<g xmlns="http://www.w3.org/2000/svg">
</g>
<g xmlns="http://www.w3.org/2000/svg">
</g>
<g xmlns="http://www.w3.org/2000/svg">
</g>
<g xmlns="http://www.w3.org/2000/svg">
</g>
<g xmlns="http://www.w3.org/2000/svg">
</g>
<g xmlns="http://www.w3.org/2000/svg">
</g>
<g xmlns="http://www.w3.org/2000/svg">
</g>
<g xmlns="http://www.w3.org/2000/svg">
</g>
<g xmlns="http://www.w3.org/2000/svg">
</g>
</g></svg>
