<?xml version="1.0"?>
<svg xmlns="http://www.w3.org/2000/svg" xmlns:xlink="http://www.w3.org/1999/xlink" xmlns:svgjs="http://svgjs.com/svgjs" version="1.1" width="512" height="512" x="0" y="0" viewBox="0 0 512 512" style="enable-background:new 0 0 512 512" xml:space="preserve" class=""><g><g xmlns="http://www.w3.org/2000/svg"><g><path d="m440.752 284.757h-11.852c-7.211 0-13.057 5.846-13.057 13.057v193.629c0 7.211 5.846 13.057 13.057 13.057h11.852c7.211 0 13.057-5.846 13.057-13.057v-193.629c0-7.211-5.846-13.057-13.057-13.057z" fill="#e8a882" data-original="#e8a882" style="" class=""/><path d="m402.267 325.925h-16.957l-16.712 23.591 16.712 23.591h16.957c13.029 0 23.591-10.562 23.591-23.591 0-13.029-10.562-23.591-23.591-23.591z" fill="#72b7e3" data-original="#90d3f1" style="" class=""/><path d="m314.795 325.925-11.766 48.564 57.606 25.885c11.581 5.204 24.675-3.268 24.675-15.964v-58.485z" fill="#ec6574" data-original="#ff889e" style="" class=""/><path d="m325.088 403.916-75.235 17.883-75.235-17.883 12.218-92.581h126.033z" fill="#fbe29f" data-original="#fbe29f" style="" class=""/><path d="m310.876 504.5h-122.047c-14.562 0-25.799-12.81-23.897-27.252l4.958-37.567 79.962-17.882 79.962 17.882 4.958 37.567c1.903 14.442-9.334 27.252-23.896 27.252z" fill="#fbe29f" data-original="#fbe29f" style="" class=""/><path d="m329.815 439.681h-159.925l4.728-35.765h150.47z" fill="#ec6574" data-original="#ff889e" style="" class=""/><path d="m109.34 176.588c-7.929-5.836-16.723-10.946-23.98-14.795-8.177-4.336-18.228.079-20.653 9.011-23.738 87.405 53.404 82.359 53.404 82.359z" fill="#59c2e7" data-original="#59c2e7" style="" class=""/><path d="m390.366 176.588c7.929-5.836 16.723-10.946 23.98-14.795 8.177-4.336 18.228.079 20.653 9.011 23.738 87.405-53.404 82.359-53.404 82.359z" fill="#59c2e7" data-original="#59c2e7" style="" class=""/><path d="m180.794 357.113c21.154 9.291 44.512 14.46 69.058 14.46s47.904-5.17 69.059-14.46l-6.042-45.779h-126.033z" fill="#fccb88" data-original="#fccb88" style="" class=""/><circle cx="249.853" cy="199.257" fill="#72b7e3" r="142.318" data-original="#90d3f1" style="" class=""/><path d="m133.81 220.132c0-85.495 67.623-155.183 152.297-158.526-11.576-3.041-23.725-4.666-36.254-4.666-78.6 0-142.318 63.718-142.318 142.317 0 45.995 21.826 86.886 55.678 112.903-18.512-25.955-29.403-57.719-29.403-92.028z" fill="#5dade0" data-original="#78cbec" style="" class=""/><path d="m425.431 133.112h-351.157c-16.305 0-22.224-21.483-8.233-29.836l25.509-15.233 158.302-31.104 158.302 31.104 25.509 15.233c13.992 8.353 8.073 29.836-8.232 29.836z" fill="#fccb88" data-original="#fccb88" style="" class=""/><g><path d="m159.794 132.858c0-19.472 5.146-40.925 14.147-61.003l-82.391 16.188-25.509 15.233c-13.991 8.353-8.072 29.835 8.233 29.835h85.524c-.001-.084-.004-.168-.004-.253z" fill="#fbc072" data-original="#fbc072" style=""/></g><path d="m408.155 88.043h-316.605l114.725-68.525c13.171-7.862 28.234-12.018 43.578-12.018s30.406 4.156 43.577 12.018z" fill="#fbe29f" data-original="#fbe29f" style="" class=""/><path d="m294.179 267.552c0-5.376-4.358-9.734-9.734-9.734h-69.185c-5.376 0-9.734 4.358-9.734 9.734 0 24.48 19.846 44.326 44.326 44.326 24.481.001 44.327-19.845 44.327-44.326z" fill="#423e4f" data-original="#423e4f" style=""/><path d="m249.853 283.419c-13.535 0-24.507 10.972-24.507 24.507v20.233c0 13.535 10.972 24.507 24.507 24.507s24.507-10.972 24.507-24.507v-20.233c0-13.535-10.972-24.507-24.507-24.507z" fill="#ec6574" data-original="#ff889e" style="" class=""/><path d="m167.868 347.603c-22.028 0-39.886 17.857-39.886 39.885v31.402c0 22.028 17.857 39.885 39.885 39.885 22.028 0 39.885-17.857 39.885-39.885v-31.402c.001-22.028-17.856-39.885-39.884-39.885z" fill="#ec6574" data-original="#ff748f" style="" class=""/><g><g><path d="m249.853 172.962c-13.053 0-25.166-2.135-35.239-5.773-4.463 6.705-7.069 14.753-7.069 23.411 0 23.366 18.942 42.308 42.308 42.308s42.308-18.942 42.308-42.308c0-8.659-2.606-16.706-7.069-23.411-10.073 3.638-22.186 5.773-35.239 5.773z" fill="#ffefe0" data-original="#ffefe0" style="" class=""/></g></g><path d="m149.915 386.486c0-14.185 4.26-27.371 11.556-38.366-18.986 3.062-33.489 19.518-33.489 39.368v31.402c0 22.028 17.857 39.885 39.885 39.885 9.178 0 17.626-3.108 24.366-8.318-24.874-10.577-42.318-35.236-42.318-63.971z" fill="#cb4655" data-original="#fd5f7e" style="" class=""/><path d="m167.868 313.908c-14.944 0-27.058 12.114-27.058 27.058 0 11.114 9.01 20.123 20.123 20.123h13.869c11.114 0 20.123-9.01 20.123-20.123.001-14.944-12.113-27.058-27.057-27.058z" fill="#5dade0" data-original="#78cbec" style="" class=""/><path d="m160.134 332.798c0-7.023 2.237-13.52 6.028-18.831-14.149.881-25.353 12.629-25.353 26.999 0 11.114 9.01 20.124 20.123 20.124h13.869c.583 0 1.158-.039 1.728-.087-9.79-5.591-16.395-16.123-16.395-28.205z" fill="#59c2e7" data-original="#59c2e7" style="" class=""/><g><path d="m217.261 14.007c-3.776 1.567-7.451 3.401-10.985 5.511l-114.726 68.525h76.075c9.561-28.646 27.26-56.342 49.636-74.036z" fill="#fccb88" data-original="#fccb88" style="" class=""/></g></g><g><path d="m298.086 151.746c-12.059 9.925-32.612 13.715-48.238 13.715-15.611 0-36.188-3.797-48.239-13.716-3.198-2.633-7.925-2.174-10.557 1.024s-2.174 7.924 1.024 10.557c3.448 2.838 7.51 5.364 12.027 7.559-2.672 6.188-4.063 12.874-4.063 19.715 0 27.464 22.344 49.808 49.808 49.808s49.809-22.344 49.809-49.808c0-6.841-1.391-13.527-4.063-19.715 4.516-2.194 8.577-4.719 12.025-7.557 3.198-2.632 3.657-7.359 1.025-10.557-2.633-3.199-7.358-3.658-10.558-1.025zm-48.238 73.662c-19.193 0-34.808-15.615-34.808-34.808 0-5.011 1.064-9.901 3.11-14.395 7.113 2.037 15.524 3.502 24.198 4.021v14.596c0 4.142 3.358 7.5 7.5 7.5s7.5-3.358 7.5-7.5v-14.596c8.677-.52 17.107-1.99 24.199-4.021 2.045 4.493 3.11 9.384 3.11 14.395 0 19.193-15.615 34.808-34.809 34.808z" fill="#000000" data-original="#000000" style="" class=""/><path d="m116.717 268.026c8.414 16.253 19.903 30.969 33.608 43.18-10.177 6.021-17.02 17.103-17.02 29.76 0 4.143.923 8.072 2.563 11.602-9.734 8.908-15.391 21.498-15.391 34.921v31.402c0 23.072 16.579 42.335 38.447 46.528l-1.432 10.851c-2.489 18.895 12.218 35.73 31.333 35.73h122.047c19.058 0 33.829-16.78 31.332-35.733-.102-.77-1.189-9.007-10.663-80.742l26.016 11.69c16.551 7.438 35.249-4.688 35.249-22.805v-3.804h9.457c2.079 0 4.11-.209 6.076-.6v111.436c0 11.335 9.222 20.557 20.557 20.557h11.852c11.335 0 20.557-9.222 20.557-20.557v-54.614c0-4.142-3.358-7.5-7.5-7.5s-7.5 3.358-7.5 7.5v54.614c0 3.064-2.493 5.557-5.557 5.557h-11.852c-3.064 0-5.557-2.493-5.557-5.557v-119.08c6.261-5.786 10.016-14.04 10.016-22.848 0-9.012-3.911-17.211-10.016-22.848v-28.854c0-3.064 2.493-5.557 5.557-5.557h11.852c3.064 0 5.557 2.493 5.557 5.557v109.015c0 4.142 3.358 7.5 7.5 7.5s7.5-3.358 7.5-7.5v-109.013c0-11.335-9.222-20.557-20.557-20.557h-11.852c-11.335 0-20.557 9.222-20.557 20.557v21.211c-1.966-.391-3.997-.6-6.076-.6-6.602 0-55.031 0-61.63 0 19.872-15.148 35.614-34.923 45.871-57.753 10.469-.371 33.661-3.313 48.28-21.19 13.268-16.225 15.773-39.993 7.449-70.644-3.693-13.599-19.002-20.249-31.405-13.671-5.528 2.931-10.656 5.904-15.366 8.889-1.933-8.017-4.527-15.864-7.746-23.444h37.712c23.867 0 32.603-31.522 12.078-43.775-10.659-6.367-127.218-75.985-140.236-83.76-29.19-17.425-65.615-17.447-94.844.001l-22.911 13.684c-3.556 2.124-4.717 6.729-2.593 10.285 2.124 3.557 6.731 4.717 10.285 2.593l22.909-13.683c24.458-14.6 54.976-14.618 79.464-.001l91.388 54.586h-262.239l41.917-25.037c3.556-2.124 4.717-6.729 2.593-10.285s-6.729-4.717-10.285-2.593c-106.147 63.4-66.216 39.548-90.762 54.208-20.462 12.216-11.876 43.776 12.077 43.776h37.712c-3.219 7.581-5.813 15.428-7.746 23.445-4.709-2.985-9.837-5.958-15.366-8.89-12.426-6.589-27.719.095-31.405 13.671-8.478 31.216-5.73 55.273 8.167 71.502 14.69 17.155 37.095 20.005 47.551 20.341 1.113 2.48 2.286 4.932 3.535 7.346zm276.09 65.399h9.457c8.835 0 16.077 7.195 16.09 16.066 0 .008.001.016.001.024s-.001.016-.001.024c-.014 8.83-7.215 16.066-16.09 16.066h-9.457zm6.859-134.169c0-6.502-.502-13.507-1.231-19.206 5.639-3.876 12.152-7.777 19.421-11.631 3.951-2.096 8.743.083 9.901 4.351 6.969 25.659 5.445 44.887-4.53 57.148-8.429 10.363-21.559 13.965-30.716 15.188 4.669-14.506 7.155-30.358 7.155-45.85zm-323.197 30.661c-9.974-12.262-11.498-31.489-4.529-57.148 1.142-4.206 5.886-6.48 9.902-4.351 7.27 3.855 13.782 7.756 19.42 11.631-.723 5.646-1.231 12.569-1.231 19.206 0 15.786 2.57 31.612 7.154 45.849-9.159-1.223-22.288-4.825-30.716-15.187zm91.394 91.49c10.588 0 19.558 8.645 19.558 19.558 0 6.856-5.613 12.606-12.588 12.622-.012 0-.023.002-.035.002h-13.869c-.012 0-.023-.002-.035-.002-7.002-.016-12.588-5.785-12.588-12.622-.001-10.784 8.773-19.558 19.557-19.558zm.002 129.866c-.1 0-.509-.01-.409-.01-16.915 0-31.979-14.128-31.979-32.373v-31.402c0-9.003 3.716-17.47 10.147-23.54 4.649 3.106 10.035 4.64 15.294 4.64h.01 13.869.01c5.324 0 10.687-1.565 15.283-4.634 6.559 6.173 10.157 14.738 10.157 23.533v31.402c.002 17.949-14.63 32.384-32.382 32.384zm81.983-175.355c-11.253 0-21.833 5.966-27.644 15.905-.007.011-.014.022-.021.034-5.845-6.638-9.161-15.225-9.161-24.305 0-1.232 1.002-2.234 2.234-2.234h69.184c1.232 0 2.234 1.002 2.234 2.234 0 9.081-3.316 17.668-9.161 24.305-.004-.007-.009-.014-.014-.021-5.815-9.956-16.403-15.918-27.651-15.918zm17.008 32.008v20.233c0 9.383-7.655 17.008-17.007 17.008-9.256 0-17.007-7.536-17.007-17.007v-20.233c0-9.414 7.73-17.007 17.007-17.007 9.231-.002 17.007 7.55 17.007 17.006zm-43.021 38.883c5.894 8.208 15.6 13.357 26.013 13.357 10.542 0 20.187-5.234 26.004-13.345 11.286-1.98 22.581-5.371 32.843-9.758 2.993 22.674 5.082 38.509 7.834 59.353h-101.28v-8.928c0-13.636-5.88-26.227-15.381-34.943 1.538-3.315 2.485-7.122 2.55-11.149 7.108 2.349 14.247 4.151 21.417 5.413zm94.675 64.607 2.745 20.765h-107.903c1.265-4.338 1.897-8.931 1.897-13.291v-7.474zm-7.638 85.584h-122.047c-10.013 0-17.773-8.815-16.461-18.771l1.629-12.343c12.542-1.604 24.09-8.19 31.89-18.706h117.353l4.097 31.047c1.308 9.93-6.42 18.773-16.461 18.773zm66.934-163.575v50.986c0 7.246-7.45 12.111-14.101 9.123l-34.472-15.49-5.889-44.619zm-96.019-3.175c.033-.51.069-1.423.069-2.091v-19.883c12.476-9.798 19.819-24.705 19.819-40.724 0-9.503-7.731-17.234-17.234-17.234h-69.184c-9.503 0-17.234 7.731-17.234 17.234 0 16.02 7.343 30.926 19.819 40.724v19.883c0 .718.045 1.731.068 2.079-7.424-1.809-13.702-3.928-20.166-6.63-1.764-3.035-4.188-6.035-7.085-8.585-.024-.021-.047-.041-.071-.062-6.497-5.685-14.564-8.515-22.554-8.554-33.369-25.533-53.003-65.462-53.003-107.152 0-19.7 4.41-40.039 13.4-58.645h242.836c8.857 18.331 13.4 38.633 13.4 58.645-.001 62.912-43.346 116.528-102.88 130.995zm-207.518-204.639c-8.714 0-11.842-11.446-4.387-15.897l23.732-14.172h312.468l23.733 14.173c7.466 4.457 4.311 15.896-4.388 15.896-17.552 0-333.738 0-351.158 0z" fill="#000000" data-original="#000000" style="" class=""/></g></g></g></svg>
