<?xml version="1.0"?>
<svg xmlns="http://www.w3.org/2000/svg" xmlns:xlink="http://www.w3.org/1999/xlink" xmlns:svgjs="http://svgjs.com/svgjs" version="1.1" width="512" height="512" x="0" y="0" viewBox="0 0 60 42" style="enable-background:new 0 0 512 512" xml:space="preserve" class=""><g><g xmlns="http://www.w3.org/2000/svg" id="066---Repair-Vehicle"><path id="Shape" d="m13 32c-1.6568542 0-3 1.3431458-3 3s1.3431458 3 3 3 3-1.3431458 3-3-1.3431458-3-3-3zm0 4c-.5522847 0-1-.4477153-1-1s.4477153-1 1-1 1 .4477153 1 1-.4477153 1-1 1z" fill="#db0361" data-original="#000000" style=""/><path id="Shape" d="m47 32c-1.2133867 0-2.3072956.7309265-2.7716386 1.8519497s-.2076757 2.4113767.6503183 3.2693706c.8579939.857994 2.1483474 1.1146613 3.2693706.6503183s1.8519497-1.5582519 1.8519497-2.7716386c0-1.6568542-1.3431458-3-3-3zm0 4c-.5522847 0-1-.4477153-1-1s.4477153-1 1-1 1 .4477153 1 1-.4477153 1-1 1z" fill="#db0361" data-original="#000000" style=""/><path id="Shape" d="m54 16h-4c-1.742 0-2.784-.8-3.846-2.938l-4.32-8.641c-1.3496714-2.71442363-4.1225549-4.42799892-7.154-4.421h-29.68c-2.76005315.00330612-4.99669388 2.23994685-5 5v28c.00330612 2.7600532 2.23994685 4.9966939 5 5h1.685c.35402653.7453346.8367564 1.4223751 1.426 2h-7.111c-.55228475 0-1 .4477153-1 1s.44771525 1 1 1h58c.5522847 0 1-.4477153 1-1s-.4477153-1-1-1h-7.111c.5892436-.5776249 1.0719735-1.2546654 1.426-2h1.685c2.7600532-.0033061 4.9966939-2.2399468 5-5v-11c-.0033074-3.3123376-2.6876624-5.9966926-6-6zm4 7v2h-2c-.4000752-.0056201-.7582884-.2491743-.910632-.6191515-.1523435-.3699773-.0694877-.7951482.210632-1.0808485.392-.4.617-.3 2.7-.3zm-12.348-7h-8.652c-.5522847 0-1-.4477153-1-1v-4c0-.5522847.4477153-1 1-1h5.387c2.037 4.076 2.405 4.97 3.265 6zm-40.652-14h29.68c2.2740266-.005145 4.353972 1.28057598 5.366 3.317l1.341 2.683h-4.387c-1.6568542 0-3 1.34314575-3 3v4c0 1.6568542 1.3431458 3 3 3h17c1.8184116.0068148 3.4034067 1.2393149 3.858 3h-1.858c-1.6568542 0-3 1.3431458-3 3s1.3431458 3 3 3h2v2h-7.413c-2.2053965-1.3336221-4.9686035-1.3336221-7.174 0h-26.826c-2.2053965-1.3336221-4.9686035-1.3336221-7.174 0h-3.413v-7c0-1.6568542-1.34314575-3-3-3h-1v-14c0-1.65685425 1.34314575-3 3-3zm35.08 34h-20.16c.263758-1.7569427-.1603446-3.5479168-1.184-5h22.528c-1.0236554 1.4520832-1.447758 3.2430573-1.184 5zm-38.08-7v-2h2v2zm2-4h-2v-4h1c.55228475 0 1 .4477153 1 1zm1 11c-1.65685425 0-3-1.3431458-3-3v-2h5.264c-1.02365535 1.4520832-1.44775803 3.2430573-1.184 5zm3-1c0-2.7614237 2.2385763-5 5-5s5 2.2385763 5 5-2.2385763 5-5 5c-2.7600532-.0033061-4.99669388-2.2399468-5-5zm9.889 5c.5892436-.5776249 1.0719735-1.2546654 1.426-2h21.37c.3540265.7453346.8367564 1.4223751 1.426 2zm24.111-5c0-2.7614237 2.2385763-5 5-5s5 2.2385763 5 5-2.2385763 5-5 5c-2.7600532-.0033061-4.9966939-2.2399468-5-5zm16-2c0 1.6568542-1.3431458 3-3 3h-1.08c.263758-1.7569427-.1603446-3.5479168-1.184-5h5.264z" fill="#db0361" data-original="#000000" style=""/><path id="Shape" d="m14.6 13.943 1.19 1.191-1.619 1.619-1.46-1.46c-.3923789-.3789722-1.0160848-.3735524-1.4018186.0121814s-.3911536 1.0094397-.0121814 1.4018186l.9.9-2.11 2.11c-1.43814949 1.4331789-1.44217893 3.7608505-.009 5.199 1.4331789 1.4381495 3.7608505 1.4421789 5.199.009l2.123-2.112.894.894c.3923789.3789722 1.0160848.3735524 1.4018186-.0121814s.3911536-1.0094397.0121814-1.4018186l-1.308-1.306 1.619-1.619 1.038 1.032c-.3255551 2.1357764.7574768 4.2390872 2.6851171 5.2146535s4.2638449.6027088 5.7920575-.9244104 1.9027421-3.8630563.9285557-5.7913944c-.9741863-1.9283381-3.0767215-3.0128751-5.2127303-2.6888487l-1.037-1.037 2.3-2.295c.683275-.0647351 1.3229529-.3644295 1.81-.848l1.958-1.958c.5855729-.58574978.5855729-1.53525022 0-2.121l-3.081-3.08c-.5857498-.58557291-1.5352502-.58557291-2.121 0l-1.957 1.957c-.4843554.4878213-.7844235 1.12860271-.849 1.813l-2.3 2.3-1.183-1.191c.3240264-2.13600883-.7605106-4.23854399-2.6888487-5.21273034s-4.2642752-.5996569-5.7913944.9285557c-1.52711924 1.5282126-1.89997668 3.86441721-.9244104 5.79205754.9755663 1.9276403 3.0788771 3.0106722 5.2146535 2.6851171zm-.733 9.57c-.4825655.4750082-1.2025958.6150074-1.8279913.3554257s-1.0346523-.8683118-1.0390087-1.5454257c.0009494-.4463736.1810924-.8736728.5-1.186l2.113-2.113 2.372 2.376zm3.124-3.94-1.406-1.406 1.615-1.619 1.406 1.406zm9.155-12.934 2.374 2.373-1.6 1.6c-.3904999.3903819-1.0235001.3903819-1.414 0-1.031-1.03-1.252-1.149-1.252-1.667s.168-.587 1.888-2.306zm-3.221 4.184c.3483789.4384036.737445.8428716 1.162 1.208.0784031.0713793.1608745.1381578.247.2l-1.534 1.528-1.407-1.407zm-6.185-1.034c-.1025644.3508214-.0055562.7296518.253.988l7.234 7.234c.2591189.2572015.6371539.354006.988.253 1.1285376-.3074016 2.3327125.0712352 3.0822476.9691717.7495351.8979366.9068827 2.1503921.4027524 3.2058283l-1.992-1.993c-.2510745-.2599566-.6228779-.3642126-.9725073-.2726972-.3496295.0915155-.6226744.3645604-.7141899.7141899-.0915154.3496294.0127406.7214328.2726972.9725073l1.992 1.993c-1.0555303.5037819-2.3078353.3463351-3.2058101-.4030524s-1.276966-1.9533073-.9701899-3.0819476c.1040087-.3515524.0073072-.7318347-.252-.991l-7.234-7.234c-.2591653-.2593072-.6394476-.3560087-.991-.252-1.1286403.3067761-2.3325601-.0722151-3.0819476-.9701899s-.9068343-2.15027982-.4030524-3.2058101l1.993 1.992c.2510745.25995658.6228779.3642126.9725073.27269716.3496295-.09151544.6226744-.3645604.7141899-.71418984.0915154-.34962943-.0127406-.72143285-.2726972-.97250732l-1.994-1.993c1.0561996-.50605037 2.3106064-.34886153 3.209284.40215315.8986776.75101467 1.2761452 1.95756468.965716 3.08684685z" fill="#db0361" data-original="#000000" style=""/></g></g></svg>
