<svg height="512" viewBox="0 0 60 42" width="512" xmlns="http://www.w3.org/2000/svg"><g id="066---Repair-Vehicle" fill="none"><g id="Layer_3" transform="translate(1 1)"><path id="Shape" d="m15.31 29c-2.0052528-1.3333467-4.6147472-1.3333467-6.62 0-1.68073342 1.1079845-2.69160058 2.9869198-2.69 5-.00183789.6820602.11664384 1.3590987.35 2 .84400491 2.3970521 3.10870054 4.0006282 5.65 4.0006282 2.5412995 0 4.8059951-1.6035761 5.65-4.0006282.2333562-.6409013.3518379-1.3179398.35-2 .0016006-2.0130802-1.0092666-3.8920155-2.69-5zm-3.31 7c-1.1045695 0-2-.8954305-2-2s.8954305-2 2-2 2 .8954305 2 2c-.0032948 1.1032019-.8967981 1.9967052-2 2z" fill="#3f51b5"/><circle id="Oval" cx="12" cy="34" fill="#7f8e94" r="2"/><path id="Shape" d="m49.31 29c-2.0052528-1.3333467-4.6147472-1.3333467-6.62 0-1.6807334 1.1079845-2.6916006 2.9869198-2.69 5-.0018379.6820602.1166438 1.3590987.35 2 .8440049 2.3970521 3.1087005 4.0006282 5.65 4.0006282s4.8059951-1.6035761 5.65-4.0006282c.2333562-.6409013.3518379-1.3179398.35-2 .0016006-2.0130802-1.0092666-3.8920155-2.69-5zm-3.31 7c-1.1045695 0-2-.8954305-2-2s.8954305-2 2-2 2 .8954305 2 2c-.0032948 1.1032019-.8967981 1.9967052-2 2z" fill="#3f51b5"/><circle id="Oval" cx="46" cy="34" fill="#7f8e94" r="2"/><path id="Shape" d="m40 34c-.0018379.6820602.1166438 1.3590987.35 2h-22.7c.2333562-.6409013.3518379-1.3179398.35-2 .0016006-2.0130802-1.0092666-3.8920155-2.69-5h27.38c-1.6807334 1.1079845-2.6916006 2.9869198-2.69 5z" fill="#02a9f4"/><path id="Shape" d="m58 29v3c0 2.209139-1.790861 4-4 4h-2.35c.2333562-.6409013.3518379-1.3179398.35-2 .0016006-2.0130802-1.0092666-3.8920155-2.69-5z" fill="#02a9f4"/><path id="Shape" d="m55 29v3c-.0015706 1.9486354-1.4101124 3.6112389-3.332 3.933-.008.022-.01.045-.018.067h2.35c2.209139 0 4-1.790861 4-4v-3z" fill="#0377bc"/><path id="Shape" d="m6 34c-.00183789.6820602.11664384 1.3590987.35 2h-2.35c-2.209139 0-4-1.790861-4-4v-3h8.69c-1.68073342 1.1079845-2.69160058 2.9869198-2.69 5z" fill="#02a9f4"/><path id="Shape" d="m55 25h3v4h-8.69c-2.0052528-1.3333467-4.6147472-1.3333467-6.62 0h-27.38c-2.0052528-1.3333467-4.6147472-1.3333467-6.62 0h-4.69v-8c-.0032948-1.1032019-.89679813-1.9967052-2-2h-2v-15c0-2.209139 1.790861-4 4-4h29.68c2.6506262.00233822 5.0731192 1.49994969 6.26 3.87l2.07 4.13h-6.01c-1.1032019.0032948-1.9967052.89679813-2 2v4c.0032948 1.1032019.8967981 1.9967052 2 2h17c2.7614237 0 5 2.2385763 5 5h-3c-1.1011688.0081672-1.9918328.8988312-2 2 .0032948 1.1032019.8967981 1.9967052 2 2z" fill="#3f51b5"/><g fill="#283593"><path id="Shape" d="m36.94 3.87 2.07 4.13h3l-2.07-4.13c-1.1868808-2.37005031-3.6093738-3.86766178-6.26-3.87h-3c2.6506262.00233822 5.0731192 1.49994969 6.26 3.87z"/><path id="Rectangle-path" d="m55 25h3v4h-3z"/><path id="Shape" d="m53 16h-3c2.7614237 0 5 2.2385763 5 5h3c0-2.7614237-2.2385763-5-5-5z"/></g><path id="Shape" d="m58 21v4h-3c-1.1032019-.0032948-1.9967052-.8967981-2-2 .0081672-1.1011688.8988312-1.9918328 2-2z" fill="#ffdc00"/><path id="Shape" d="m49 16h-13c-1.1032019-.0032948-1.9967052-.8967981-2-2v-4c.0032948-1.10320187.8967981-1.9967052 2-2h6.01l2.25 4.51c1.07 2.16 2.33 3.49 4.74 3.49z" fill="#02a9f4"/><path id="Shape" d="m44.26 12.51-2.25-4.51h-3l2.25 4.51c1.07 2.16 2.33 3.49 4.74 3.49h3c-2.41 0-3.67-1.33-4.74-3.49z" fill="#0377bc"/><path id="Rectangle-path" d="m0 25h4v4h-4z" fill="#ffdc00"/><path id="Shape" d="m4 21v4h-4v-6h2c1.10320187.0032948 1.9967052.8967981 2 2z" fill="#f44335"/><path id="Shape" d="m16.4 20.4-2.83 2.82c-.6770183.675232-1.662841.9379871-2.5861182.6892881-.9232772-.2486991-1.64374112-.971069-1.89-1.8950001-.24625889-.923931.01909987-1.909056.6961182-2.584288l2.82-2.82 3.38 3.38z" fill="#02a9f4"/><path id="Shape" d="m19.02 16.95-3.03 3.04-2.82-2.82 3.03-3.04z" fill="#7f8e94"/><path id="Shape" d="m25.09 10.89-3.29 3.28-2.82-2.82 3.27-3.27c.0291278.48352853.2356518.93930571.58 1.28l.96.96c.3466162.3461614.8105578.5495819 1.3.57z" fill="#7f8e94"/><path id="Shape" d="m28.58 8.37-1.96 1.95c-.7885074.7643361-2.0414926.7643361-2.83 0l-.96-.96c-.3739653-.3739499-.5840582-.88114407-.5840582-1.41s.2100929-1.0360501.5840582-1.41l1.96-1.96c.0938833-.09465633.2216812-.14789916.355-.14789916s.2611167.05324283.355.14789916l3.08 3.08c.1902272.1984416.1902272.5115584 0 .71z" fill="#9e9e9e"/><path id="Shape" d="m24.29 19.45c-.3877236.3900375-.3877236 1.0199625 0 1.41l2.73 2.73c-.609243.3683664-1.3080545.5620963-2.02.56-2.209139 0-4-1.790861-4-4-.0013572-.362.049156-.7223273.15-1.07l-2.13-2.13-5.1-5.1c-.3476727.100844-.708.1513572-1.07.15-2.209139 0-4-1.790861-4-4-.00209631-.71194549.19163362-1.41075703.56-2.02l2.73 2.73c.3921222.38936075 1.0256393.38712217 1.415-.005s.3871222-1.02563925-.005-1.415l-2.73-2.73c.612352-.3696585 1.3147304-.56341805 2.03-.56 2.209139 0 4 1.790861 4 4 .0013572.36199997-.049156.7223273-.15 1.07l7.23 7.23c.3476727-.100844.708-.1513572 1.07-.15 2.209139 0 4 1.790861 4 4 .0034181.7152696-.1903415 1.417648-.56 2.03l-2.73-2.73c-.3930079-.3899779-1.0269921-.3899779-1.42 0z" fill="#9e9e9e"/></g><g id="Layer_11" fill="#000"><path id="Shape" d="m13 32c-1.6568542 0-3 1.3431458-3 3s1.3431458 3 3 3 3-1.3431458 3-3-1.3431458-3-3-3zm0 4c-.5522847 0-1-.4477153-1-1s.4477153-1 1-1 1 .4477153 1 1-.4477153 1-1 1z"/><path id="Shape" d="m47 32c-1.2133867 0-2.3072956.7309265-2.7716386 1.8519497s-.2076757 2.4113767.6503183 3.2693706c.8579939.857994 2.1483474 1.1146613 3.2693706.6503183s1.8519497-1.5582519 1.8519497-2.7716386c0-1.6568542-1.3431458-3-3-3zm0 4c-.5522847 0-1-.4477153-1-1s.4477153-1 1-1 1 .4477153 1 1-.4477153 1-1 1z"/><path id="Shape" d="m54 16h-4c-1.742 0-2.784-.8-3.846-2.938l-4.32-8.641c-1.3496714-2.71442363-4.1225549-4.42799892-7.154-4.421h-29.68c-2.76005315.00330612-4.99669388 2.23994685-5 5v28c.00330612 2.7600532 2.23994685 4.9966939 5 5h1.685c.35402653.7453346.8367564 1.4223751 1.426 2h-7.111c-.55228475 0-1 .4477153-1 1s.44771525 1 1 1h58c.5522847 0 1-.4477153 1-1s-.4477153-1-1-1h-7.111c.5892436-.5776249 1.0719735-1.2546654 1.426-2h1.685c2.7600532-.0033061 4.9966939-2.2399468 5-5v-11c-.0033074-3.3123376-2.6876624-5.9966926-6-6zm4 7v2h-2c-.4000752-.0056201-.7582884-.2491743-.910632-.6191515-.1523435-.3699773-.0694877-.7951482.210632-1.0808485.392-.4.617-.3 2.7-.3zm-12.348-7h-8.652c-.5522847 0-1-.4477153-1-1v-4c0-.5522847.4477153-1 1-1h5.387c2.037 4.076 2.405 4.97 3.265 6zm-40.652-14h29.68c2.2740266-.005145 4.353972 1.28057598 5.366 3.317l1.341 2.683h-4.387c-1.6568542 0-3 1.34314575-3 3v4c0 1.6568542 1.3431458 3 3 3h17c1.8184116.0068148 3.4034067 1.2393149 3.858 3h-1.858c-1.6568542 0-3 1.3431458-3 3s1.3431458 3 3 3h2v2h-7.413c-2.2053965-1.3336221-4.9686035-1.3336221-7.174 0h-26.826c-2.2053965-1.3336221-4.9686035-1.3336221-7.174 0h-3.413v-7c0-1.6568542-1.34314575-3-3-3h-1v-14c0-1.65685425 1.34314575-3 3-3zm35.08 34h-20.16c.263758-1.7569427-.1603446-3.5479168-1.184-5h22.528c-1.0236554 1.4520832-1.447758 3.2430573-1.184 5zm-38.08-7v-2h2v2zm2-4h-2v-4h1c.55228475 0 1 .4477153 1 1zm1 11c-1.65685425 0-3-1.3431458-3-3v-2h5.264c-1.02365535 1.4520832-1.44775803 3.2430573-1.184 5zm3-1c0-2.7614237 2.2385763-5 5-5s5 2.2385763 5 5-2.2385763 5-5 5c-2.7600532-.0033061-4.99669388-2.2399468-5-5zm9.889 5c.5892436-.5776249 1.0719735-1.2546654 1.426-2h21.37c.3540265.7453346.8367564 1.4223751 1.426 2zm24.111-5c0-2.7614237 2.2385763-5 5-5s5 2.2385763 5 5-2.2385763 5-5 5c-2.7600532-.0033061-4.9966939-2.2399468-5-5zm16-2c0 1.6568542-1.3431458 3-3 3h-1.08c.263758-1.7569427-.1603446-3.5479168-1.184-5h5.264z"/><path id="Shape" d="m14.6 13.943 1.19 1.191-1.619 1.619-1.46-1.46c-.3923789-.3789722-1.0160848-.3735524-1.4018186.0121814s-.3911536 1.0094397-.0121814 1.4018186l.9.9-2.11 2.11c-1.43814949 1.4331789-1.44217893 3.7608505-.009 5.199 1.4331789 1.4381495 3.7608505 1.4421789 5.199.009l2.123-2.112.894.894c.3923789.3789722 1.0160848.3735524 1.4018186-.0121814s.3911536-1.0094397.0121814-1.4018186l-1.308-1.306 1.619-1.619 1.038 1.032c-.3255551 2.1357764.7574768 4.2390872 2.6851171 5.2146535s4.2638449.6027088 5.7920575-.9244104 1.9027421-3.8630563.9285557-5.7913944c-.9741863-1.9283381-3.0767215-3.0128751-5.2127303-2.6888487l-1.037-1.037 2.3-2.295c.683275-.0647351 1.3229529-.3644295 1.81-.848l1.958-1.958c.5855729-.58574978.5855729-1.53525022 0-2.121l-3.081-3.08c-.5857498-.58557291-1.5352502-.58557291-2.121 0l-1.957 1.957c-.4843554.4878213-.7844235 1.12860271-.849 1.813l-2.3 2.3-1.183-1.191c.3240264-2.13600883-.7605106-4.23854399-2.6888487-5.21273034s-4.2642752-.5996569-5.7913944.9285557c-1.52711924 1.5282126-1.89997668 3.86441721-.9244104 5.79205754.9755663 1.9276403 3.0788771 3.0106722 5.2146535 2.6851171zm-.733 9.57c-.4825655.4750082-1.2025958.6150074-1.8279913.3554257s-1.0346523-.8683118-1.0390087-1.5454257c.0009494-.4463736.1810924-.8736728.5-1.186l2.113-2.113 2.372 2.376zm3.124-3.94-1.406-1.406 1.615-1.619 1.406 1.406zm9.155-12.934 2.374 2.373-1.6 1.6c-.3904999.3903819-1.0235001.3903819-1.414 0-1.031-1.03-1.252-1.149-1.252-1.667s.168-.587 1.888-2.306zm-3.221 4.184c.3483789.4384036.737445.8428716 1.162 1.208.0784031.0713793.1608745.1381578.247.2l-1.534 1.528-1.407-1.407zm-6.185-1.034c-.1025644.3508214-.0055562.7296518.253.988l7.234 7.234c.2591189.2572015.6371539.354006.988.253 1.1285376-.3074016 2.3327125.0712352 3.0822476.9691717.7495351.8979366.9068827 2.1503921.4027524 3.2058283l-1.992-1.993c-.2510745-.2599566-.6228779-.3642126-.9725073-.2726972-.3496295.0915155-.6226744.3645604-.7141899.7141899-.0915154.3496294.0127406.7214328.2726972.9725073l1.992 1.993c-1.0555303.5037819-2.3078353.3463351-3.2058101-.4030524s-1.276966-1.9533073-.9701899-3.0819476c.1040087-.3515524.0073072-.7318347-.252-.991l-7.234-7.234c-.2591653-.2593072-.6394476-.3560087-.991-.252-1.1286403.3067761-2.3325601-.0722151-3.0819476-.9701899s-.9068343-2.15027982-.4030524-3.2058101l1.993 1.992c.2510745.25995658.6228779.3642126.9725073.27269716.3496295-.09151544.6226744-.3645604.7141899-.71418984.0915154-.34962943-.0127406-.72143285-.2726972-.97250732l-1.994-1.993c1.0561996-.50605037 2.3106064-.34886153 3.209284.40215315.8986776.75101467 1.2761452 1.95756468.965716 3.08684685z"/></g></g></svg>